<svg width="52" height="52" viewBox="0 0 52 52" fill="none" xmlns="http://www.w3.org/2000/svg">
<rect width="52" height="52" rx="1.64644" fill="#FC3E02"/>
<rect x="1.78369" y="1.78363" width="48.4327" height="48.4327" rx="1.09763" fill="white"/>
<path d="M16.5248 46.6356C18.7475 46.6356 20.0646 45.8453 21.2501 44.5775L19.6365 42.9475C18.731 43.7708 17.9243 44.2976 16.6071 44.2976C14.6314 44.2976 13.2648 42.6512 13.2648 40.6755V40.6425C13.2648 38.6668 14.6643 37.0533 16.6071 37.0533C17.7596 37.0533 18.6651 37.5472 19.5542 38.354L21.1677 36.4935C20.0975 35.4398 18.7969 34.7154 16.6236 34.7154C13.0837 34.7154 10.6141 37.399 10.6141 40.6755V40.7084C10.6141 44.0177 13.1331 46.6356 16.5248 46.6356ZM25.2849 46.5203H27.4911L30.0925 38.9796L32.6939 46.5203H34.9001L38.8351 34.9129H36.1843L33.797 42.717L31.2121 34.88H29.0388L26.4539 42.717L24.0665 34.9129H21.3499L25.2849 46.5203ZM43.5308 46.6026C46.0169 46.6026 47.7622 45.3184 47.7622 43.0299V42.9969C47.7622 40.9883 46.445 40.1486 44.1071 39.5394C42.1149 39.029 41.6209 38.7821 41.6209 38.0247V37.9918C41.6209 37.432 42.1313 36.9874 43.1027 36.9874C44.0741 36.9874 45.0785 37.4155 46.0993 38.1235L47.4164 36.2136C46.2474 35.2751 44.815 34.7483 43.1357 34.7483C40.7813 34.7483 39.1019 36.1313 39.1019 38.2223V38.2552C39.1019 40.5437 40.6002 41.1859 42.9216 41.7786C44.848 42.2725 45.2431 42.6018 45.2431 43.2439V43.2768C45.2431 43.9519 44.6175 44.3635 43.5802 44.3635C42.2631 44.3635 41.1764 43.8202 40.1392 42.964L38.6409 44.7586C40.0239 45.9935 41.7856 46.6026 43.5308 46.6026Z" fill="#FC3E02"/>
</svg>
