<?xml version="1.0" encoding="UTF-8"?>
<svg width="1e3" height="1e3" version="1.1" viewBox="0 0 264.58 264.58" xmlns="http://www.w3.org/2000/svg" xmlns:cc="http://creativecommons.org/ns#" xmlns:dc="http://purl.org/dc/elements/1.1/" xmlns:osb="http://www.openswatchbook.org/uri/2009/osb" xmlns:rdf="http://www.w3.org/1999/02/22-rdf-syntax-ns#" xmlns:xlink="http://www.w3.org/1999/xlink">
  <metadata>
    <rdf:RDF>
      <cc:Work rdf:about="">
        <dc:format>image/svg+xml</dc:format>
        <dc:type rdf:resource="http://purl.org/dc/dcmitype/StillImage"/>
        <dc:title/>
      </cc:Work>
    </rdf:RDF>
  </metadata>
  <g transform="translate(0 -32.417)">
    <ellipse cx="130.54" cy="169.52" rx="92.929" ry="90.663" fill="#fff" style="paint-order:normal"/>
    <ellipse cx="130.54" cy="167.5" rx="92.929" ry="90.663" stroke="#fff" stroke-width="6.841" style="paint-order:normal"/>
    <g transform="matrix(2.417 0 0 2.5557 70.439 106.28)" clip-rule="evenodd" fill="#fff" fill-rule="evenodd" stroke-linejoin="round" stroke-miterlimit="2">
      <g transform="matrix(.72135 0 0 .81144 6.5456 5.1033)">
        <path d="m27.411 7.92c0-0.84-0.766-1.521-1.711-1.521h-2e-3c-0.944 0-1.71 0.681-1.71 1.521v35.117c0 0.84 0.766 1.521 1.71 1.521h2e-3c0.945 0 1.711-0.681 1.711-1.521v-35.117z" fill="#fff"/>
      </g>
      <g transform="matrix(.0005993 -.72135 .25857 .00021482 18.428 54.784)">
        <path d="m27.411 11.171c0-2.635-0.766-4.772-1.711-4.772h-2e-3c-0.944 0-1.71 2.137-1.71 4.772v28.614c0 2.636 0.766 4.773 1.71 4.773h2e-3c0.945 0 1.711-2.137 1.711-4.773v-28.614z" fill="#fff"/>
      </g>
      <g transform="matrix(.0005993 -.72135 .57933 .00048131 10.275 38.64)">
        <path d="m27.411 8.529c0-1.177-0.766-2.13-1.711-2.13h-2e-3c-0.944 0-1.71 0.953-1.71 2.13v33.899c0 1.176 0.766 2.13 1.71 2.13h2e-3c0.945 0 1.711-0.954 1.711-2.13v-33.899z" fill="#fff"/>
      </g>
      <g transform="matrix(.50952 -.51062 .39386 .393 1.9416 23.243)">
        <path d="m27.411 8.617c0-1.225-0.766-2.218-1.711-2.218h-2e-3c-0.944 0-1.71 0.993-1.71 2.218v33.723c0 1.225 0.766 2.218 1.71 2.218h2e-3c0.945 0 1.711-0.993 1.711-2.218v-33.723z" fill="#fff"/>
      </g>
      <g transform="matrix(-.51096 -.50918 .39274 -.39412 28.196 43.26)">
        <path d="m27.411 8.617c0-1.225-0.766-2.218-1.711-2.218h-2e-3c-0.944 0-1.71 0.993-1.71 2.218v33.723c0 1.225 0.766 2.218 1.71 2.218h2e-3c0.945 0 1.711-0.993 1.711-2.218v-33.723z" fill="#fff"/>
      </g>
    </g>
    <ellipse cx="130.57" cy="168.12" rx="81.879" ry="79.882" fill="none" stroke="#f0827d" stroke-width="3.9299" style="paint-order:normal"/>
  </g>
  <style type="text/css">.st0{fill:#043BEA;}</style>
</svg>
